<?xml version="1.0" standalone="no"?>
<!DOCTYPE svg PUBLIC "-//W3C//DTD SVG 20010904//EN"
 "http://www.w3.org/TR/2001/REC-SVG-20010904/DTD/svg10.dtd">
<svg version="1.0" xmlns="http://www.w3.org/2000/svg"
 width="476.000000pt" height="476.000000pt" viewBox="0 0 476.000000 476.000000"
 preserveAspectRatio="xMidYMid meet">
<metadata>
Created by potrace 1.14, written by Peter Selinger 2001-2017
</metadata>
<g transform="translate(0.000000,476.000000) scale(0.100000,-0.100000)"
fill="#000000" stroke="none">
<path d="M3001 4360 c-23 -31 -55 -49 -101 -55 -14 -2 -26 -4 -27 -6 -2 -1 -7
-3 -13 -4 -5 -1 -11 -3 -12 -5 -2 -1 -11 -3 -21 -5 -10 -2 -26 -7 -35 -11 -9
-4 -26 -9 -37 -11 -11 -2 -21 -8 -23 -13 -2 -6 -10 -10 -18 -10 -17 0 -89 -44
-120 -74 -40 -38 -103 -137 -120 -189 -39 -116 -3 -230 91 -292 49 -32 70 -42
83 -37 16 5 16 32 -1 32 -18 0 -64 45 -84 83 -24 45 -22 140 5 197 21 45 71
100 91 100 6 0 11 4 11 8 0 5 41 30 90 55 50 26 90 44 90 41 0 -3 7 2 16 10 8
9 24 16 34 16 10 0 22 5 25 10 3 6 14 10 23 10 12 0 9 -7 -13 -25 -16 -13 -35
-24 -41 -25 -6 0 -17 -7 -24 -15 -6 -8 -15 -14 -18 -13 -4 1 -23 -6 -42 -17
-19 -11 -37 -20 -40 -20 -18 -4 -80 -46 -118 -79 -55 -50 -74 -87 -78 -151 -3
-66 8 -87 41 -75 14 5 25 7 25 4 0 -4 6 -1 13 5 8 6 16 9 19 6 3 -3 21 1 40 9
20 9 38 12 42 9 3 -4 6 -2 6 4 0 6 11 14 25 17 45 11 129 68 181 122 55 57 90
134 97 213 5 48 -13 166 -29 194 -9 16 -12 14 -33 -13z"/>
<path d="M2011 4133 c-13 -35 -17 -107 -6 -152 21 -97 103 -172 231 -215 85
-28 93 -28 100 0 9 34 -12 101 -37 122 -12 9 -29 24 -39 32 -9 8 -52 33 -94
55 -42 22 -76 45 -76 51 0 13 137 -55 194 -97 64 -47 94 -136 65 -192 -17 -33
-51 -67 -60 -61 -5 3 -9 -2 -9 -10 0 -20 13 -20 48 -2 60 31 98 101 90 164 -7
51 -41 120 -80 163 -33 36 -138 93 -193 104 -17 3 -37 8 -45 10 -8 2 -18 4
-21 4 -4 1 -18 12 -31 26 l-25 25 -12 -27z"/>
<path d="M2257 3602 c-23 -5 -23 -52 1 -53 9 -1 138 -2 286 -3 260 -1 269 0
276 19 4 11 5 24 0 28 -8 9 -104 12 -119 3 -5 -3 -11 -2 -13 3 -2 6 -17 7 -40
2 -21 -5 -38 -6 -38 -2 0 5 -95 6 -110 1 -15 -5 -50 -6 -50 -1 0 6 -163 8
-193 3z"/>
<path d="M2245 3512 c-3 -7 -5 -21 -5 -30 0 -16 25 -17 283 -16 155 0 288 3
294 7 8 5 9 16 4 29 -6 17 -16 22 -49 22 -23 1 -42 -2 -42 -6 0 -4 -12 -3 -27
1 -30 7 -102 5 -111 -4 -3 -2 -11 0 -19 6 -9 9 -13 8 -13 0 0 -8 -5 -9 -19 -1
-13 6 -28 7 -44 1 -14 -6 -28 -7 -31 -4 -9 9 -96 9 -96 1 0 -4 -6 -5 -12 -3
-7 3 -34 6 -60 8 -34 2 -49 -1 -53 -11z"/>
<path d="M2250 3442 c-18 -6 -12 -52 8 -53 140 -6 563 -2 566 6 2 6 0 19 -4
30 -6 17 -16 20 -58 19 -28 -1 -55 -5 -61 -9 -6 -3 -11 -2 -11 2 0 7 -41 9
-60 3 -9 -3 -85 -1 -105 3 -11 2 -32 1 -47 -4 -16 -4 -28 -4 -28 0 0 7 -55 7
-85 1 -5 -1 -13 -1 -17 0 -14 4 -88 5 -98 2z"/>
<path d="M2258 3363 c-10 -2 -18 -10 -18 -16 -1 -7 -1 -214 -1 -460 0 -303 3
-452 10 -461 6 -7 9 -15 6 -18 -3 -3 1 -24 9 -47 9 -23 15 -43 16 -46 0 -3 0
-6 1 -7 0 -2 2 -10 4 -18 16 -74 244 -783 263 -816 5 -9 15 14 26 59 9 39 24
92 31 117 14 49 73 264 80 296 2 10 23 82 45 159 22 77 42 149 44 160 3 11 15
54 27 95 21 72 22 91 23 538 l1 464 -27 -4 c-16 -3 -28 -2 -28 1 0 8 -170 4
-178 -3 -3 -3 -11 -1 -19 5 -9 9 -13 8 -13 0 0 -9 -6 -9 -22 0 -13 7 -25 11
-28 10 -3 -2 -13 -7 -22 -12 -11 -6 -19 -5 -23 1 -5 8 -11 8 -20 0 -9 -7 -15
-8 -19 -1 -5 7 -15 7 -31 1 -14 -5 -25 -6 -25 -1 0 9 -55 5 -71 -4 -5 -4 -9
-1 -9 4 0 11 -3 12 -32 4z"/>
<path d="M1926 1482 c-3 -2 -36 -6 -74 -7 -38 -1 -73 -5 -78 -7 -5 -3 -17 -4
-26 -3 -10 2 -18 -1 -18 -6 0 -6 -4 -7 -10 -4 -5 3 -10 1 -10 -4 0 -6 8 -11
18 -12 9 0 28 -3 42 -5 14 -3 94 -6 177 -7 84 -1 153 -5 153 -9 0 -4 13 -3 29
2 19 5 33 4 40 -3 6 -6 11 -7 11 -1 0 5 45 9 103 10 56 0 134 4 172 8 39 4 76
8 82 8 8 1 9 5 3 12 -10 13 -38 17 -132 19 -38 1 -68 6 -68 11 0 5 -6 3 -14
-3 -8 -7 -16 -8 -19 -4 -4 6 -233 8 -312 3 -5 -1 -22 1 -37 3 -15 2 -30 2 -32
-1z"/>
<path d="M242 1111 c-6 -3 -34 -67 -63 -141 -28 -74 -61 -157 -71 -185 -49
-125 -56 -150 -47 -159 24 -26 38 -11 70 73 17 47 36 88 40 91 4 3 45 5 90 5
l83 -1 16 -44 c9 -25 22 -58 28 -73 7 -16 12 -32 12 -36 0 -4 5 -12 12 -19 16
-16 48 3 43 26 -11 48 -180 462 -190 466 -7 2 -17 1 -23 -3z m58 -206 c25 -60
25 -61 -40 -60 -32 0 -62 3 -65 6 -5 6 10 48 41 116 8 17 14 37 14 45 1 7 10
-9 21 -37 12 -27 25 -59 29 -70z"/>
<path d="M2132 1108 c-7 -7 -12 -40 -12 -79 0 -62 -2 -68 -19 -64 -21 4 -34
-16 -25 -39 3 -8 14 -13 25 -11 18 4 19 -3 19 -102 0 -145 19 -181 103 -198
10 -2 24 -2 32 2 18 6 20 42 3 45 -7 0 -17 2 -23 2 -47 7 -61 43 -61 156 l1
95 32 0 c38 0 47 7 38 34 -4 13 -13 18 -26 16 -39 -8 -46 3 -44 67 0 40 -4 65
-13 74 -16 17 -15 17 -30 2z"/>
<path d="M2650 1098 c-25 -11 -46 -23 -48 -29 -2 -5 -8 -9 -13 -9 -14 0 -42
-32 -68 -80 -70 -127 -4 -298 135 -348 41 -16 113 -21 142 -12 4 1 12 3 17 4
23 3 87 40 92 53 3 7 0 20 -7 28 -11 14 -17 13 -49 -6 -44 -26 -66 -32 -111
-31 -51 2 -61 5 -103 31 -79 49 -115 169 -73 250 22 41 72 91 91 91 8 0 15 4
15 9 0 28 162 10 181 -20 5 -8 9 -9 9 -4 0 6 5 3 10 -5 8 -13 11 -13 26 2 24
24 13 42 -43 68 -63 30 -144 33 -203 8z"/>
<path d="M4638 1113 c-15 -4 -18 -16 -18 -77 0 -70 -1 -73 -22 -72 -18 1 -23
-4 -23 -24 0 -14 6 -26 13 -26 6 -1 16 -2 21 -3 5 0 11 -55 13 -121 3 -114 4
-121 29 -144 16 -15 41 -25 65 -28 36 -3 39 -1 39 22 0 19 -5 25 -24 26 -49 3
-62 36 -59 148 l3 101 30 0 c34 -1 53 21 36 38 -7 7 -24 12 -39 12 -26 0 -27
1 -30 70 -3 75 -7 84 -34 78z"/>
<path d="M2351 1057 c-17 -17 -13 -35 8 -47 23 -12 54 12 45 34 -7 19 -40 26
-53 13z"/>
<path d="M609 955 c-37 -16 -62 -37 -89 -75 -24 -34 -25 -42 -27 -211 -2 -136
0 -180 11 -194 20 -28 43 -5 44 43 0 20 1 61 1 90 l1 53 30 -21 c16 -12 30
-18 30 -14 0 3 6 2 13 -3 31 -25 144 5 174 46 40 55 38 58 39 -69 1 -126 10
-154 39 -130 11 9 15 33 15 100 l0 87 43 -22 c75 -37 158 -21 213 41 29 33 31
34 30 12 -3 -37 9 -73 25 -73 24 -1 29 17 29 107 0 89 9 128 35 154 20 20 81
45 97 39 37 -13 67 -12 72 1 7 18 -3 46 -14 39 -5 -3 -11 -2 -14 3 -5 8 -72 8
-107 0 -9 -2 -28 -12 -42 -21 -26 -17 -27 -17 -27 2 0 22 -21 33 -41 21 -9 -6
-12 -23 -10 -51 l3 -42 -40 42 c-21 22 -42 38 -45 34 -4 -3 -7 -1 -7 5 0 7 -3
11 -7 11 -5 -1 -10 0 -13 1 -15 7 -102 5 -106 -2 -3 -5 -9 -6 -13 -3 -11 6
-89 -62 -96 -85 -7 -22 -25 -27 -25 -7 0 24 -67 85 -102 93 -5 1 -9 3 -10 4
-8 8 -88 4 -109 -5z m101 -47 c19 -2 55 -36 73 -71 16 -30 7 -98 -15 -125 -18
-21 -80 -48 -109 -46 -88 4 -143 128 -86 196 28 35 73 58 101 51 11 -2 28 -5
36 -5z m367 -14 c48 -30 70 -93 51 -144 -11 -31 -58 -81 -69 -74 -4 2 -10 0
-13 -4 -3 -5 -17 -8 -32 -6 -77 8 -130 67 -121 133 12 95 108 144 184 95z"/>
<path d="M1498 947 c-74 -37 -110 -114 -94 -200 8 -43 60 -101 106 -120 80
-33 205 13 184 67 -7 17 -22 16 -53 -6 -13 -10 -28 -15 -33 -12 -4 3 -8 1 -8
-4 0 -5 -10 -8 -22 -6 -13 1 -28 3 -35 3 -20 2 -83 62 -83 80 0 14 16 16 138
16 l139 0 0 -68 c1 -68 5 -82 26 -82 22 -1 27 20 27 115 0 102 10 132 50 161
27 20 74 31 85 21 4 -4 10 -7 13 -8 53 -7 72 -52 72 -172 0 -73 4 -103 14
-111 11 -9 17 -8 29 3 21 21 16 210 -7 254 -24 47 -77 83 -128 86 -49 3 -98
-10 -114 -31 -10 -11 -13 -9 -18 11 -5 21 -10 24 -28 17 -18 -7 -22 -16 -22
-50 l0 -42 -25 32 c-47 61 -141 81 -213 46z m126 -46 c9 -8 16 -10 16 -6 0 3
11 -7 25 -23 45 -53 38 -58 -90 -57 -90 0 -115 3 -115 14 0 17 46 72 54 64 3
-4 6 -1 6 6 0 7 4 10 9 6 5 -3 12 -2 15 3 8 13 62 8 80 -7z"/>
<path d="M2362 961 c-10 -6 -14 -44 -16 -147 -2 -161 3 -196 26 -200 25 -3 27
12 28 173 2 175 -3 197 -38 174z"/>
<path d="M3022 950 c-73 -33 -119 -125 -99 -200 21 -81 88 -133 172 -133 82 0
145 47 173 128 8 25 10 18 8 -44 -2 -66 0 -74 18 -81 31 -11 36 4 36 110 0
106 10 134 57 166 39 26 83 23 123 -8 36 -29 40 -43 40 -159 0 -100 10 -127
40 -109 22 14 22 205 -1 250 -29 59 -85 96 -144 95 -44 -1 -95 -15 -95 -26 0
-17 -19 -9 -25 10 -8 26 -38 20 -45 -10 -4 -13 -5 -46 -3 -74 l4 -50 -19 35
c-31 59 -46 80 -59 80 -7 0 -13 5 -13 11 0 5 -4 7 -10 4 -5 -3 -10 -1 -10 4 0
6 -3 10 -7 10 -5 -1 -10 0 -13 1 -24 10 -95 4 -128 -10z m118 -46 c53 -12 92
-102 70 -160 -11 -27 -53 -66 -78 -72 -34 -7 -75 -1 -102 15 -59 34 -74 126
-30 180 38 47 68 55 140 37z"/>
<path d="M3633 963 c-10 -4 -13 -48 -13 -177 l0 -173 23 2 c21 2 22 6 27 111
5 116 21 161 61 171 10 3 19 9 19 13 0 11 59 2 87 -12 43 -21 53 -51 55 -160
1 -112 9 -134 39 -117 14 7 19 21 19 52 1 36 2 39 12 22 10 -18 31 -39 63 -62
57 -42 205 -7 205 48 0 27 -22 28 -65 4 -53 -29 -95 -23 -142 21 -56 53 -45
59 106 59 l132 0 20 -45 c18 -42 68 -87 109 -98 85 -23 206 29 169 74 -8 10
-16 10 -35 2 -13 -6 -24 -15 -24 -19 0 -5 -7 -6 -15 -3 -8 4 -15 1 -15 -4 0
-13 -45 -8 -82 9 -57 25 -85 116 -52 167 23 36 53 62 73 63 9 0 26 2 39 3 12
2 38 -8 58 -22 32 -21 38 -22 51 -9 33 33 -42 86 -116 81 -75 -5 -114 -28
-152 -89 -11 -16 -19 -25 -19 -18 0 19 -61 84 -89 95 -29 12 -121 18 -121 8 0
-4 -6 -7 -13 -7 -22 0 -68 -35 -83 -65 l-15 -29 -40 45 c-23 25 -49 46 -59 46
-10 0 -21 4 -25 9 -10 16 -135 -2 -135 -20 0 -5 -4 -9 -10 -9 -5 0 -10 6 -10
14 0 16 -19 25 -37 19z m543 -70 c26 -17 60 -72 47 -74 -31 -5 -216 -3 -225 2
-15 10 25 65 60 82 33 16 85 12 118 -10z"/>
</g>
</svg>
